# Blender v2.82 (sub 7) OBJ File: ''
# www.blender.org
mtllib grid.mtl
o Plane
v 0.538938 1.067999 -0.038240
v 0.539012 -0.005410 0.035236
v -0.536982 1.067999 -0.037161
v -0.536908 -0.005410 0.036315
vt 0.000000 0.000000
vt 1.000000 0.000000
vt 1.000000 1.000000
vt 0.000000 1.000000
vn -0.0010 -0.0683 -0.9977
usemtl None
s off
f 1/1/1 2/2/1 4/3/1 3/4/1
o Plane.001
v -0.536255 1.067999 -0.037161
v -0.536181 -0.005410 0.036314
v -1.612175 1.067999 -0.036083
v -1.612102 -0.005410 0.037393
vt 0.000000 0.000000
vt 1.000000 0.000000
vt 1.000000 1.000000
vt 0.000000 1.000000
vn -0.0010 -0.0683 -0.9977
usemtl None
s off
f 5/5/2 6/6/2 8/7/2 7/8/2
o Plane.002
v 1.615064 1.067999 -0.039319
v 1.615137 -0.005410 0.034157
v 0.539143 1.067999 -0.038240
v 0.539217 -0.005410 0.035236
vt 0.000000 0.000000
vt 1.000000 0.000000
vt 1.000000 1.000000
vt 0.000000 1.000000
vn -0.0010 -0.0683 -0.9977
usemtl None
s off
f 9/9/3 10/10/3 12/11/3 11/12/3
o Plane.003
v 0.539050 2.153158 -0.038240
v 0.539124 1.079749 0.035236
v -0.536870 2.153158 -0.037161
v -0.536797 1.079749 0.036315
vt 0.000000 0.000000
vt 1.000000 0.000000
vt 1.000000 1.000000
vt 0.000000 1.000000
vn -0.0010 -0.0683 -0.9977
usemtl None
s off
f 13/13/4 14/14/4 16/15/4 15/16/4
o Plane.004
v -0.549831 2.153286 -0.037308
v -0.549757 1.079877 0.036167
v -1.625751 2.153286 -0.036229
v -1.625677 1.079877 0.037246
vt 0.000000 0.000000
vt 1.000000 0.000000
vt 1.000000 1.000000
vt 0.000000 1.000000
vn -0.0010 -0.0683 -0.9977
usemtl None
s off
f 17/17/5 18/18/5 20/19/5 19/20/5
o Plane.005
v 1.620734 2.153158 -0.039325
v 1.620808 1.079749 0.034151
v 0.544814 2.153158 -0.038246
v 0.544887 1.079749 0.035230
vt 0.000000 0.000000
vt 1.000000 0.000000
vt 1.000000 1.000000
vt 0.000000 1.000000
vn -0.0010 -0.0683 -0.9977
usemtl None
s off
f 21/21/6 22/22/6 24/23/6 23/24/6
